<svg width="24" height="14" viewBox="0 0 24 14" fill="none" xmlns="http://www.w3.org/2000/svg">
<path d="M13.819 1.31883C14.0831 1.06737 14.4346 0.928356 14.7993 0.931115C15.1639 0.933875 15.5133 1.07819 15.7736 1.33362C16.0339 1.58905 16.1847 1.9356 16.1944 2.30016C16.204 2.66471 16.0717 3.01876 15.8252 3.28758L8.34398 12.6438C8.21534 12.7824 8.06008 12.8936 7.88748 12.9708C7.71488 13.0479 7.52849 13.0895 7.33946 13.093C7.15042 13.0965 6.96262 13.0619 6.78728 12.9911C6.61194 12.9204 6.45267 12.815 6.31898 12.6813L1.35773 7.72008C1.21957 7.59134 1.10875 7.43609 1.03189 7.26359C0.955035 7.09109 0.913707 6.90488 0.910375 6.71606C0.907044 6.52724 0.941777 6.33969 1.0125 6.16459C1.08323 5.98948 1.1885 5.83042 1.32204 5.69688C1.45557 5.56335 1.61464 5.45808 1.78974 5.38735C1.96484 5.31662 2.1524 5.28189 2.34121 5.28522C2.53003 5.28855 2.71624 5.32988 2.88874 5.40674C3.06124 5.4836 3.21649 5.59442 3.34523 5.73258L7.27148 9.65696L13.7815 1.36008C13.7932 1.3456 13.8057 1.33183 13.819 1.31883V1.31883ZM12.094 10.9563L13.819 12.6813C13.9526 12.8147 14.1118 12.9199 14.287 12.9904C14.4621 13.061 14.6497 13.0956 14.8385 13.0921C15.0273 13.0886 15.2135 13.0471 15.3859 12.9701C15.5583 12.8931 15.7135 12.7821 15.8421 12.6438L23.3271 3.28758C23.4616 3.15483 23.5679 2.99635 23.6397 2.8216C23.7116 2.64684 23.7475 2.4594 23.7453 2.27047C23.7431 2.08154 23.7028 1.89498 23.6269 1.72195C23.551 1.54892 23.441 1.39296 23.3035 1.26339C23.166 1.13381 23.0038 1.03327 22.8265 0.967786C22.6493 0.902296 22.4607 0.873195 22.272 0.88222C22.0832 0.891246 21.8982 0.938213 21.7281 1.02032C21.5579 1.10242 21.406 1.21797 21.2815 1.36008L14.7696 9.65696L13.8602 8.74571L12.0921 10.9563H12.094Z" fill="#3BAF77"/>
</svg>
